<svg width="93" height="57" viewBox="0 0 93 57" fill="none" xmlns="http://www.w3.org/2000/svg">
<path d="M91.7898 12.2795C90.7772 10.9126 89.1574 10.0519 87.3346 10.0519C87.3346 10.0519 70.2232 10.0519 70.1727 10.0519C67.5908 10.0519 67.5402 14.102 70.1727 14.102H87.3346C88.3472 14.102 89.1571 15.1146 88.9039 16.1269L79.4877 51.3116C79.2853 52.0204 78.6778 52.5266 77.9185 52.5266H33.2163C32.5074 52.5266 31.8494 52.0204 31.647 51.3621C31.647 51.3621 21.7749 16.2282 21.7244 16.1774C21.4206 15.1649 22.2306 14.1017 23.2937 14.1017H40.2533C42.8351 14.1017 42.8857 10.0517 40.2533 10.0517H23.2937C22.1292 10.0517 21.0661 10.406 20.1549 11.0135L19.3955 8.5835C18.0286 3.82463 13.5735 0.483398 8.61221 0.483398C8.61221 0.483398 0.00593901 0.483398 -0.0446067 0.483398C-2.62646 0.483398 -2.67701 4.53345 -0.0446067 4.53345H8.61221C11.8016 4.53345 14.6366 6.65969 15.4973 9.74795L17.826 17.2911L27.7486 52.425C28.2042 53.9943 29.2673 55.2601 30.6847 55.9689C30.1785 57.7408 29.5203 59.4114 29.6721 61.3353C29.9759 64.7273 32.6085 67.8658 35.899 68.7265C35.4434 69.6378 35.1902 70.6504 35.1902 71.764C35.1902 75.5103 38.2276 78.5478 41.9739 78.5478C45.7202 78.5478 48.7577 75.5103 48.7577 71.764C48.7577 70.8022 48.5553 69.891 48.2008 69.0303H62.5277C62.1734 69.8402 61.9707 70.8022 61.9707 71.764C61.9707 75.5103 65.0082 78.5478 68.7545 78.5478C72.5008 78.5478 75.5383 75.5103 75.5383 71.764C75.5383 70.8022 75.3359 69.891 74.9814 69.0303H80.2464C82.8283 69.0303 82.8788 64.9802 80.2464 64.9802C80.2464 64.9802 38.2779 64.9802 38.2274 64.9802C35.595 64.9802 33.4685 62.4997 33.823 59.9176L34.7848 56.5764H77.9683C80.5502 56.5764 82.7777 54.8552 83.4358 52.3745L92.8522 17.1898C93.258 15.3678 92.8023 13.5958 91.7898 12.2795ZM68.6539 69.0305C70.1727 69.0305 71.3876 70.2455 71.3876 71.7643C71.3876 73.283 70.1727 74.498 68.6539 74.498C67.1352 74.498 65.9202 73.283 65.9202 71.7643C65.9202 70.2455 67.1352 69.0305 68.6539 69.0305ZM41.9239 69.0305C43.4426 69.0305 44.6576 70.2455 44.6576 71.7643C44.6576 73.283 43.4426 74.498 41.9239 74.498C40.4051 74.498 39.1901 73.283 39.1901 71.7643C39.1901 70.2455 40.4557 69.0305 41.9239 69.0305Z" fill="#CCA834"/>
<path d="M68.4515 25.3914C68.4515 25.3914 42.1771 25.3914 42.1263 25.3914C39.5444 25.3914 39.4939 29.4415 42.1263 29.4415H68.4515C71.0334 29.4415 71.0839 25.3914 68.4515 25.3914Z" fill="#CCA834"/>
<path d="M68.4515 37.0859C68.4515 37.0859 42.1771 37.0859 42.1263 37.0859C39.5444 37.0859 39.4939 41.136 42.1263 41.136H68.4515C71.0334 41.136 71.0839 37.0859 68.4515 37.0859Z" fill="#CCA834"/>
<path d="M48.1508 13.6969C48.1508 13.6969 54.6813 18.2531 54.7321 18.2531C55.3902 18.7087 56.3522 18.7087 57.0608 18.2531C57.0608 18.2531 63.5914 13.6969 63.6421 13.6969C65.7684 12.2287 63.4903 8.83691 61.3135 10.3556L57.9215 12.6843C57.9215 12.6843 57.9215 2.45797 57.9215 2.40742C57.9215 -0.174437 53.8714 -0.224983 53.8714 2.40742V12.6843C53.8714 12.6843 50.5302 10.3556 50.4794 10.3556C48.3534 8.88745 46.0245 12.2289 48.1508 13.6969Z" fill="#CCA834"/>
</svg>
